<svg xmlns="http://www.w3.org/2000/svg" xmlns:xlink="http://www.w3.org/1999/xlink" xmlns:serif="http://www.serif.com/" width="100%" height="100%" viewBox="0 0 200 201" xml:space="preserve" style="fill-rule:evenodd;clip-rule:evenodd;stroke-linecap:round;stroke-linejoin:round;stroke-miterlimit:1.5;">    <g transform="matrix(1,0,0,1,0,-5277)">        <g id="Evaluaci&#xF3;n" transform="matrix(0.48667,0,0,0.692525,1393.81,1653.2)">            <rect x="-2863.96" y="5233.32" width="410.956" height="288.798" style="fill:none;"></rect>            <g transform="matrix(9.92479e-17,1.13904,-1.62084,6.97463e-17,-2456.97,6427.93)">                <g transform="matrix(0.866025,0.5,-0.5,0.866025,-831.46,-194.751)">                    <path d="M89.165,244.299L119.881,262.033L119.881,297.5L89.165,315.234L58.45,297.5L58.45,262.033L89.165,244.299Z" style="fill:none;stroke:rgb(23,37,80);stroke-width:0.38px;"></path>                </g>                <g transform="matrix(0.866025,0.5,-0.5,0.866025,-775.351,-161.044)">                    <path d="M89.165,244.299L119.881,262.033L119.881,297.5L89.165,315.234L58.45,297.5L58.45,262.033L89.165,244.299Z" style="fill:none;stroke:rgb(23,37,80);stroke-width:0.38px;"></path>                </g>                <g transform="matrix(0.866025,0.5,-0.5,0.866025,-831.46,-130.328)">                    <path d="M89.165,244.299L119.881,262.033L119.881,297.5L89.165,315.234L58.45,297.5L58.45,262.033L89.165,244.299Z" style="fill:none;stroke:rgb(23,37,80);stroke-width:0.38px;"></path>                </g>                <g transform="matrix(0.866025,0.5,-0.5,0.866025,-775.351,-225.467)">                    <path d="M89.165,244.299L119.881,262.033L119.881,297.5L89.165,315.234L58.45,297.5L58.45,262.033L89.165,244.299Z" style="fill:none;stroke:rgb(23,37,80);stroke-width:0.38px;"></path>                </g>                <g transform="matrix(0.866025,0.5,-0.5,0.866025,-887.077,-99.6126)">                    <path d="M89.165,244.299L119.881,262.033L119.881,297.5L89.165,315.234L58.45,297.5L58.45,262.033L89.165,244.299Z" style="fill:none;stroke:rgb(23,37,80);stroke-width:0.38px;"></path>                </g>                <g transform="matrix(0.866025,0.5,-0.5,0.866025,-943.353,-130.328)">                    <path d="M89.165,244.299L119.881,262.033L119.881,297.5L89.165,315.234L58.45,297.5L58.45,262.033L89.165,244.299Z" style="fill:none;stroke:rgb(23,37,80);stroke-width:0.38px;"></path>                </g>            </g>            <g transform="matrix(4.21866,0,0,2.96465,-96.4581,4328.04)">                <g>                    <g id="Hexagon" transform="matrix(1.06891,0,0,1.06891,-807.379,-29.9444)">                        <path d="M205.907,367.005L184.229,367.005C182.774,367.005 181.417,366.222 180.688,364.96L169.85,346.187C169.122,344.926 169.122,343.359 169.85,342.099L180.688,323.325C181.417,322.064 182.774,321.28 184.229,321.28L205.907,321.28C207.363,321.28 208.72,322.064 209.448,323.325L220.287,342.099C221.014,343.359 221.014,344.926 220.287,346.187L209.448,364.96C208.72,366.222 207.363,367.005 205.907,367.005ZM184.229,322.125C183.074,322.125 181.998,322.746 181.42,323.747L170.581,342.521C170.003,343.521 170.003,344.764 170.581,345.765L181.42,364.538C181.998,365.539 183.074,366.161 184.229,366.161L205.907,366.161C207.062,366.161 208.139,365.539 208.717,364.538L219.555,345.765C220.133,344.764 220.133,343.521 219.555,342.521L208.717,323.747C208.139,322.746 207.062,322.125 205.907,322.125L184.229,322.125Z" style="fill:rgb(23,37,80);stroke:rgb(23,37,80);stroke-width:0.46px;stroke-linecap:butt;stroke-miterlimit:2;"></path>                    </g>                    <g transform="matrix(0.862746,0,0,0.862746,-619.575,317.205)">                        <path d="M33,15C33,14.448 32.552,14 32,14C31.448,14 31,14.448 31,15L31,17.734C30.084,18.064 29.13,18.518 28.022,19.122C27.537,19.386 27.358,19.993 27.622,20.478C27.886,20.963 28.493,21.142 28.978,20.878C29.741,20.463 30.4,20.137 31,19.882L31,23C31,23.552 31.448,24 32,24C32.552,24 33,23.552 33,23L33,19.235C33.884,19.048 34.806,18.986 35.986,19.003C36.538,19.01 36.992,18.569 37,18.016C37.008,17.464 36.566,17.01 36.014,17.003C34.906,16.987 33.943,17.035 33,17.199L33,15Z" style="fill:rgb(250,150,4);fill-rule:nonzero;stroke:rgb(23,37,80);stroke-width:0.56px;stroke-linecap:butt;stroke-miterlimit:2;"></path>                    </g>                    <g transform="matrix(0.862746,0,0,0.862746,-619.575,317.205)">                        <path d="M19.142,28.934C16.045,27.747 14.426,27.472 11.51,27.5L11.49,25.5C14.67,25.469 16.538,25.794 19.858,27.066L19.142,28.934Z" style="fill:rgb(23,37,80);fill-rule:nonzero;stroke:rgb(23,37,80);stroke-width:0.56px;stroke-linecap:butt;stroke-miterlimit:2;"></path>                    </g>                    <g transform="matrix(0.862746,0,0,0.862746,-619.575,317.205)">                        <path d="M11.51,22.5C14.426,22.472 16.045,22.747 19.142,23.934L19.858,22.066C16.538,20.794 14.67,20.469 11.49,20.5L11.51,22.5Z" style="fill:rgb(32,66,138);fill-rule:nonzero;stroke:rgb(23,37,80);stroke-width:0.56px;stroke-linecap:butt;stroke-miterlimit:2;"></path>                    </g>                    <g transform="matrix(0.862746,0,0,0.862746,-619.575,317.205)">                        <path d="M19.142,18.934C16.045,17.747 14.426,17.472 11.51,17.5L11.49,15.5C14.67,15.469 16.538,15.794 19.858,17.066L19.142,18.934Z" style="fill:rgb(21,142,199);fill-rule:nonzero;stroke:rgb(23,37,80);stroke-width:0.56px;stroke-linecap:butt;stroke-miterlimit:2;"></path>                    </g>                    <g transform="matrix(0.862746,0,0,0.862746,-619.575,317.205)">                        <path d="M43.243,11.271C42.82,11.169 42.406,11.073 42,10.984L42,10.524C42,9.639 41.411,8.83 40.516,8.605C34.366,7.058 29.888,8.696 24.76,11.081C24.51,11.133 24.257,11.186 24,11.24C23.743,11.186 23.49,11.133 23.24,11.081C18.112,8.696 13.634,7.058 7.484,8.605C6.589,8.83 6,9.639 6,10.524L6,10.984C5.594,11.073 5.18,11.169 4.757,11.271C4.311,11.378 4,11.778 4,12.236L4,37.775C4,38.408 4.583,38.88 5.204,38.762C11.417,37.577 15.605,37.494 21.326,38.361C21.822,39.334 22.833,40 24,40C25.167,40 26.178,39.334 26.674,38.361C32.395,37.494 36.583,37.577 42.796,38.762C43.417,38.88 44,38.408 44,37.775L44,12.236C44,11.778 43.689,11.378 43.243,11.271ZM25,13.176C30.317,10.672 34.342,9.122 40,10.538L40,33.968C39.999,33.969 39.997,33.972 39.993,33.975C39.987,33.98 39.98,33.984 39.971,33.986C39.965,33.988 39.956,33.988 39.946,33.987C34.214,32.94 29.932,34.201 25.023,36.423C25.02,36.424 25.019,36.424 25.017,36.425L25.015,36.425L25.014,36.425C25.012,36.425 25.008,36.424 25.003,36.421L25.001,36.419L25,13.176ZM8,10.538C13.658,9.122 17.683,10.673 23,13.177L23,36.419L22.995,36.422C22.991,36.424 22.988,36.425 22.986,36.425L22.985,36.425C22.985,36.425 22.982,36.425 22.977,36.423C18.068,34.201 13.786,32.94 8.054,33.987C8.044,33.988 8.036,33.988 8.029,33.986C8.021,33.984 8.013,33.98 8.007,33.975C8.006,33.974 8.005,33.973 8.004,33.973C8.002,33.971 8.001,33.969 8,33.968L8,33.967L8,10.538Z" style="fill:rgb(23,37,80);stroke:rgb(23,37,80);stroke-width:0.56px;stroke-linecap:butt;stroke-miterlimit:2;"></path>                    </g>                </g>            </g>        </g>    </g></svg>