<svg xmlns="http://www.w3.org/2000/svg" xmlns:xlink="http://www.w3.org/1999/xlink" xmlns:serif="http://www.serif.com/" width="100%" height="100%" viewBox="0 0 200 201" xml:space="preserve" style="fill-rule:evenodd;clip-rule:evenodd;stroke-linecap:round;stroke-linejoin:round;stroke-miterlimit:1.5;">    <g transform="matrix(1,0,0,1,0,-5969)">        <g id="Tratamiento" transform="matrix(0.48667,0,0,0.692525,1393.81,2345.36)">            <rect x="-2863.96" y="5233.32" width="410.956" height="288.798" style="fill:none;"></rect>            <g transform="matrix(1.62084,0,-2.46519e-32,1.13904,-1118.57,5236.26)">                <g transform="matrix(0.866025,0.5,-0.5,0.866025,-831.46,-194.751)">                    <path d="M89.165,244.299L119.881,262.033L119.881,297.5L89.165,315.234L58.45,297.5L58.45,262.033L89.165,244.299Z" style="fill:none;stroke:rgb(23,37,80);stroke-width:0.38px;"></path>                </g>                <g transform="matrix(0.866025,0.5,-0.5,0.866025,-831.46,-130.328)">                    <path d="M89.165,244.299L119.881,262.033L119.881,297.5L89.165,315.234L58.45,297.5L58.45,262.033L89.165,244.299Z" style="fill:none;stroke:rgb(23,37,80);stroke-width:0.38px;"></path>                </g>                <g transform="matrix(0.866025,0.5,-0.5,0.866025,-887.077,-99.6126)">                    <path d="M89.165,244.299L119.881,262.033L119.881,297.5L89.165,315.234L58.45,297.5L58.45,262.033L89.165,244.299Z" style="fill:none;stroke:rgb(23,37,80);stroke-width:0.38px;"></path>                </g>                <g transform="matrix(0.866025,0.5,-0.5,0.866025,-943.353,-130.328)">                    <path d="M89.165,244.299L119.881,262.033L119.881,297.5L89.165,315.234L58.45,297.5L58.45,262.033L89.165,244.299Z" style="fill:none;stroke:rgb(23,37,80);stroke-width:0.38px;"></path>                </g>            </g>            <g id="Hexagon" transform="matrix(4.59811,0,0,3.07476,-3559.79,4283.03)">                <path d="M205.907,367.005L184.229,367.005C182.774,367.005 181.417,366.222 180.688,364.96L169.85,346.187C169.122,344.926 169.122,343.359 169.85,342.099L180.688,323.325C181.417,322.064 182.774,321.28 184.229,321.28L205.907,321.28C207.363,321.28 208.72,322.064 209.448,323.325L220.287,342.099C221.014,343.359 221.014,344.926 220.287,346.187L209.448,364.96C208.72,366.222 207.363,367.005 205.907,367.005ZM184.229,322.125C183.074,322.125 181.998,322.746 181.42,323.747L170.581,342.521C170.003,343.521 170.003,344.764 170.581,345.765L181.42,364.538C181.998,365.539 183.074,366.161 184.229,366.161L205.907,366.161C207.062,366.161 208.139,365.539 208.717,364.538L219.555,345.765C220.133,344.764 220.133,343.521 219.555,342.521L208.717,323.747C208.139,322.746 207.062,322.125 205.907,322.125L184.229,322.125Z" style="fill:rgb(23,37,80);stroke:rgb(23,37,80);stroke-width:0.46px;stroke-linecap:butt;stroke-miterlimit:2;"></path>            </g>            <g transform="matrix(1.98356,0,0,1.42378,-993.124,5008.01)">                <g transform="matrix(1.18465,0,0,1.18465,-1473.5,-213.522)">                    <path d="M525.456,365.062L525.456,353.261L515.1,353.261L515.1,365.062L503.299,365.062L503.299,375.419L515.1,375.419L515.1,387.22L525.456,387.22L525.456,375.419L537.257,375.419L537.257,365.062L525.456,365.062Z" style="fill:rgb(23,37,80);stroke:rgb(23,37,80);stroke-width:0.17px;"></path>                </g>                <g transform="matrix(0.666558,0,0,0.666558,-1180.27,4.94054)">                    <path d="M525.456,365.062L525.456,353.261L515.1,353.261L515.1,365.062L503.299,365.062L503.299,375.419L515.1,375.419L515.1,387.22L525.456,387.22L525.456,375.419L537.257,375.419L537.257,365.062L525.456,365.062Z" style="fill:rgb(32,66,138);stroke:rgb(23,37,80);stroke-width:0.31px;"></path>                </g>                <g transform="matrix(0.737642,0,0,0.737642,-1204.72,-43.1458)">                    <path d="M525.456,365.062L525.456,353.261L515.1,353.261L515.1,365.062L503.299,365.062L503.299,375.419L515.1,375.419L515.1,387.22L525.456,387.22L525.456,375.419L537.257,375.419L537.257,365.062L525.456,365.062Z" style="fill:rgb(21,142,199);stroke:rgb(23,37,80);stroke-width:0.28px;"></path>                </g>                <g transform="matrix(0.384519,0,0,0.384519,-1008.48,109.363)">                    <path d="M525.456,365.062L525.456,353.261L515.1,353.261L515.1,365.062L503.299,365.062L503.299,375.419L515.1,375.419L515.1,387.22L525.456,387.22L525.456,375.419L537.257,375.419L537.257,365.062L525.456,365.062Z" style="fill:rgb(23,37,80);stroke:rgb(23,37,80);stroke-width:0.53px;"></path>                </g>            </g>        </g>    </g></svg>