<svg xmlns="http://www.w3.org/2000/svg" xmlns:xlink="http://www.w3.org/1999/xlink" xmlns:serif="http://www.serif.com/" width="100%" height="100%" viewBox="0 0 200 201" xml:space="preserve" style="fill-rule:evenodd;clip-rule:evenodd;stroke-linecap:round;stroke-linejoin:round;stroke-miterlimit:1.5;">    <g transform="matrix(1,0,0,1,0,-5632)">        <g id="Resonancia" transform="matrix(0.48667,0,0,0.692525,1393.81,2007.87)">            <rect x="-2863.96" y="5233.32" width="410.956" height="288.798" style="fill:none;"></rect>            <g transform="matrix(9.92479e-17,-1.13904,1.62084,6.97463e-17,-2860,4327.5)">                <g transform="matrix(0.866025,0.5,-0.5,0.866025,-831.46,-194.751)">                    <path d="M89.165,244.299L119.881,262.033L119.881,297.5L89.165,315.234L58.45,297.5L58.45,262.033L89.165,244.299Z" style="fill:none;stroke:rgb(23,37,80);stroke-width:0.38px;"></path>                </g>                <g transform="matrix(0.866025,0.5,-0.5,0.866025,-775.351,-161.044)">                    <path d="M89.165,244.299L119.881,262.033L119.881,297.5L89.165,315.234L58.45,297.5L58.45,262.033L89.165,244.299Z" style="fill:none;stroke:rgb(23,37,80);stroke-width:0.38px;"></path>                </g>                <g transform="matrix(0.866025,0.5,-0.5,0.866025,-831.46,-130.328)">                    <path d="M89.165,244.299L119.881,262.033L119.881,297.5L89.165,315.234L58.45,297.5L58.45,262.033L89.165,244.299Z" style="fill:none;stroke:rgb(23,37,80);stroke-width:0.38px;"></path>                </g>                <g transform="matrix(0.866025,0.5,-0.5,0.866025,-775.351,-225.467)">                    <path d="M89.165,244.299L119.881,262.033L119.881,297.5L89.165,315.234L58.45,297.5L58.45,262.033L89.165,244.299Z" style="fill:none;stroke:rgb(23,37,80);stroke-width:0.38px;"></path>                </g>                <g transform="matrix(0.866025,0.5,-0.5,0.866025,-887.077,-99.6126)">                    <path d="M89.165,244.299L119.881,262.033L119.881,297.5L89.165,315.234L58.45,297.5L58.45,262.033L89.165,244.299Z" style="fill:none;stroke:rgb(23,37,80);stroke-width:0.38px;"></path>                </g>                <g transform="matrix(0.866025,0.5,-0.5,0.866025,-943.353,-130.328)">                    <path d="M89.165,244.299L119.881,262.033L119.881,297.5L89.165,315.234L58.45,297.5L58.45,262.033L89.165,244.299Z" style="fill:none;stroke:rgb(23,37,80);stroke-width:0.38px;"></path>                </g>            </g>            <g id="Hexagon" transform="matrix(4.59811,0,0,3.07476,-3603.77,4360.23)">                <path d="M205.907,367.005L184.229,367.005C182.774,367.005 181.417,366.222 180.688,364.96L169.85,346.187C169.122,344.926 169.122,343.359 169.85,342.099L180.688,323.325C181.417,322.064 182.774,321.28 184.229,321.28L205.907,321.28C207.363,321.28 208.72,322.064 209.448,323.325L220.287,342.099C221.014,343.359 221.014,344.926 220.287,346.187L209.448,364.96C208.72,366.222 207.363,367.005 205.907,367.005ZM184.229,322.125C183.074,322.125 181.998,322.746 181.42,323.747L170.581,342.521C170.003,343.521 170.003,344.764 170.581,345.765L181.42,364.538C181.998,365.539 183.074,366.161 184.229,366.161L205.907,366.161C207.062,366.161 208.139,365.539 208.717,364.538L219.555,345.765C220.133,344.764 220.133,343.521 219.555,342.521L208.717,323.747C208.139,322.746 207.062,322.125 205.907,322.125L184.229,322.125Z" style="fill:rgb(23,37,80);stroke:rgb(23,37,80);stroke-width:0.46px;stroke-linecap:butt;stroke-miterlimit:2;"></path>            </g>            <g transform="matrix(0.379038,0,0,0.253463,-2511.58,5344.16)">                <g transform="matrix(0.1,0,0,-0.1,-774.953,548.673)">                    <path d="M896,3898C618,3608 429,3197 380,2775C316,2215 515,1618 898,1219C971,1144 998,1134 1041,1168C1084,1203 1072,1237 980,1341C761,1589 613,1880 551,2185C433,2757 588,3334 976,3774C1072,3883 1084,3916 1041,3952C998,3986 971,3976 896,3898Z" style="fill:rgb(23,37,80);fill-rule:nonzero;stroke:rgb(23,37,80);stroke-width:55.54px;stroke-linecap:butt;stroke-miterlimit:2;"></path>                </g>                <g transform="matrix(0.1,0,0,-0.1,-774.953,548.673)">                    <path d="M4079,3952C4037,3917 4048,3881 4127,3793C4316,3582 4450,3349 4527,3095C4716,2472 4568,1819 4127,1327C4048,1239 4037,1202 4079,1168C4122,1134 4149,1144 4224,1222C4555,1566 4750,2063 4750,2560C4750,3057 4554,3554 4224,3898C4149,3976 4122,3986 4079,3952Z" style="fill:rgb(23,37,80);fill-rule:nonzero;stroke:rgb(23,37,80);stroke-width:55.54px;stroke-linecap:butt;stroke-miterlimit:2;"></path>                </g>                <g transform="matrix(0.1,0,0,-0.1,-774.953,548.673)">                    <path d="M1444,3607C1411,3588 1305,3464 1246,3375C1142,3220 1072,3053 1028,2859C1008,2770 1005,2728 1005,2560C1005,2392 1008,2350 1028,2261C1086,2005 1198,1779 1361,1595C1451,1493 1481,1480 1525,1525C1565,1564 1557,1591 1484,1672C1322,1851 1212,2073 1163,2318C1137,2448 1140,2693 1168,2827C1219,3062 1326,3272 1484,3448C1557,3529 1565,3556 1525,3595C1498,3622 1476,3626 1444,3607Z" style="fill:rgb(21,142,199);fill-rule:nonzero;stroke:rgb(21,142,199);stroke-width:55.54px;stroke-linecap:butt;stroke-miterlimit:2;"></path>                </g>                <g transform="matrix(0.1,0,0,-0.1,-774.953,548.673)">                    <path d="M3595,3595C3555,3556 3563,3529 3636,3448C3795,3271 3901,3064 3952,2827C3983,2682 3983,2438 3952,2293C3901,2056 3795,1849 3636,1672C3563,1591 3555,1564 3595,1525C3638,1481 3671,1494 3758,1594C3921,1780 4038,2013 4091,2260C4111,2349 4114,2395 4114,2560C4114,2725 4111,2771 4091,2860C4038,3107 3921,3340 3758,3526C3671,3626 3638,3639 3595,3595Z" style="fill:rgb(21,142,199);fill-rule:nonzero;stroke:rgb(21,142,199);stroke-width:55.54px;stroke-linecap:butt;stroke-miterlimit:2;"></path>                </g>                <g transform="matrix(0.1,0,0,-0.1,-774.953,548.673)">                    <path d="M1912,3245C1822,3169 1712,2984 1664,2825C1638,2741 1636,2722 1636,2560C1636,2398 1638,2379 1664,2295C1699,2179 1758,2063 1825,1975C1918,1853 1954,1832 2003,1870C2048,1905 2040,1937 1964,2032C1700,2358 1707,2794 1981,3111C2039,3178 2045,3216 2004,3249C1969,3276 1948,3275 1912,3245Z" style="fill:rgb(23,37,80);fill-rule:nonzero;stroke:rgb(23,37,80);stroke-width:55.54px;stroke-linecap:butt;stroke-miterlimit:2;"></path>                </g>                <g transform="matrix(0.1,0,0,-0.1,-774.953,548.673)">                    <path d="M3117,3250C3072,3214 3080,3181 3157,3087C3232,2995 3300,2861 3327,2755C3352,2653 3350,2450 3322,2349C3293,2242 3232,2125 3154,2029C3101,1963 3089,1943 3092,1918C3096,1874 3138,1844 3176,1857C3253,1882 3416,2143 3462,2315C3494,2432 3493,2689 3462,2805C3422,2949 3334,3110 3239,3213C3186,3270 3154,3279 3117,3250Z" style="fill:rgb(23,37,80);fill-rule:nonzero;stroke:rgb(23,37,80);stroke-width:55.54px;stroke-linecap:butt;stroke-miterlimit:2;"></path>                </g>                <g transform="matrix(0.1,0,0,-0.1,-774.953,548.673)">                    <path d="M2482,2779C2431,2764 2354,2684 2340,2630C2277,2396 2552,2230 2720,2399C2814,2494 2814,2627 2720,2720C2656,2784 2573,2805 2482,2779Z" style="fill:rgb(250,150,4);fill-rule:nonzero;stroke:rgb(250,150,4);stroke-width:55.54px;stroke-linecap:butt;stroke-miterlimit:2;"></path>                </g>            </g>        </g>    </g></svg>